# xmcd
#
# Track frame offsets: 
#        150
#        17202
#        26919
#        42636
#        56573
#        74768
#        91573
#        103584
#        123207
#        137367
#        150525
#        169056
#
# Disc length: 2483 seconds
#
# Revision: 0
# Processed by: cddbd v1.5.2PL0 Copyright (c) Steve Scherf et al.
# Submitted via: ExactAudioCopyFreeDBPlugin 1.0
#
DISCID=9c09b10c
DTITLE=Pino Daniele - Capriccio Napoletano
DYEAR=2011
DGENRE=
TTITLE0=Napule è
TTITLE1='Na Tazzulella 'E Cafè
TTITLE2=Terria Mia
TTITLE3=Santa Teresa
TTITLE4=Donna Cuncetta
TTITLE5=Chillo è Nu Buono Guaglione
TTITLE6=Lazzari Felici
TTITLE7=Quando Chiove
TTITLE8=Ce Sta Chi Ce Penza
TTITLE9=Lassa Che Vene
TTITLE10=Maronna Mia
TTITLE11=Stella Nera
EXTD=
EXTT0=
EXTT1=
EXTT2=
EXTT3=
EXTT4=
EXTT5=
EXTT6=
EXTT7=
EXTT8=
EXTT9=
EXTT10=
EXTT11=
PLAYORDER=
